<svg xmlns="http://www.w3.org/2000/svg" version="1.0" width="690pt" height="690pt" viewBox="0 0 690 690" preserveAspectRatio="xMidYMid meet"  xmlns:xlink="http://www.w3.org/1999/xlink"><rect id="svgEditorBackground" x="0" y="0" width="690" height="690" style="fill:none;stroke:none;"/>
<metadata>
Created by potrace 1.15, written by Peter Selinger 2001-2017
</metadata>
<g transform="translate(0.000000,690.000000) scale(0.100000,-0.100000)" fill="#000000" stroke="none">
<path d="M2820 5072 c0 -6 7 -12 15 -16 8 -3 15 -10 15 -17 0 -6 -7 -9 -15 -5 -8 3 -15 1 -15 -4 0 -5 9 -12 21 -15 20 -7 19 -8 -7 -21 -21 -11 -29 -12 -35 -3 -4 7 -14 9 -22 6 -11 -4 -14 -1 -10 9 3 8 -1 14 -11 14 -9 0 -16 -8 -16 -19 0 -11 -6 -22 -12 -24 -8 -4 -5 -8 9 -12 28 -9 39 -35 14 -35 -10 0 -22 -7 -25 -16 -3 -9 -12 -14 -19 -11 -6 2 -20 0 -29 -5 -12 -6 -18 -5 -18 2 0 6 -4 9 -9 6 -5 -4 -11 0 -13 6 -4 10 -14 11 -45 2 -32 -8 -45 -8 -59 3 -25 18 -34 16 -34 -7 0 -11 5 -20 10 -20 6 0 10 -5 10 -11 0 -12 -25 -6 -87 22 -23 11 -46 19 -52 19 -10 0 -27 -38 -23 -52 3 -13 -34 -9 -64 7 -26 13 -29 13 -56 -16 -16 -16 -41 -32 -56 -35 -15 -3 -39 -14 -52 -25 -21 -16 -23 -20 -10 -29 11 -7 11 -10 2 -10 -7 0 -10 -5 -6 -11 5 -8 10 -6 16 5 8 14 39 15 56 1 9 -8 -23 -64 -40 -68 -11 -3 -17 -10 -14 -15 5 -8 -51 -57 -64 -56 -3 0 -10 -5 -17 -11 -13 -13 -6 -55 8 -55 5 0 9 -7 9 -15 0 -8 -9 -15 -19 -15 -11 0 -21 -4 -23 -10 -4 -12 -56 -15 -83 -5 -14 5 -16 4 -7 -3 11 -7 7 -11 -15 -15 -15 -3 -31 -1 -34 5 -4 5 -9 3 -12 -6 -4 -9 -14 -16 -22 -16 -9 0 -13 -5 -10 -10 4 -6 1 -17 -5 -25 -13 -16 -4 -55 12 -55 6 0 16 -8 23 -17 11 -14 10 -19 -4 -29 -14 -11 -14 -15 8 -38 14 -14 21 -29 16 -33 -4 -5 -10 -2 -12 5 -5 14 -23 17 -23 3 0 -5 14 -14 31 -21 19 -8 28 -18 25 -27 -3 -8 1 -22 10 -30 8 -9 14 -24 11 -33 -5 -20 26 -42 64 -46 22 -3 39 11 100 77 101 111 109 118 124 113 7 -3 16 4 20 15 3 12 11 22 16 22 5 1 13 2 18 3 5 0 21 11 35 24 15 12 35 22 47 22 13 0 18 4 13 11 -5 9 1 10 20 5 21 -5 27 -3 24 6 -6 16 50 70 64 62 6 -4 14 0 19 7 4 8 12 14 16 15 47 5 122 34 131 50 5 9 32 17 68 20 48 5 63 3 73 -10 16 -19 35 -21 28 -3 -4 10 3 12 24 9 16 -2 29 -10 29 -18 0 -8 3 -13 8 -12 4 1 21 -5 37 -12 35 -15 57 -14 68 6 4 8 12 14 17 14 15 0 12 -30 -2 -31 -7 0 1 -5 17 -10 17 -5 45 -7 62 -4 18 3 42 1 54 -6 15 -8 19 -8 15 0 -4 6 -10 23 -12 38 -5 26 -4 26 43 19 32 -4 54 -13 67 -28 10 -13 26 -22 36 -20 11 2 21 -5 25 -16 6 -20 45 -38 45 -21 0 6 10 1 22 -11 28 -26 50 -26 66 0 l13 21 26 -21 c15 -12 35 -18 49 -16 28 5 107 -31 99 -44 -4 -6 -1 -10 4 -10 6 0 11 -6 11 -13 0 -8 12 -20 28 -28 37 -19 42 -28 40 -72 -1 -41 9 -59 21 -38 12 19 33 3 30 -22 -3 -28 32 -88 47 -83 7 3 10 -3 7 -15 -3 -10 -1 -19 5 -19 6 0 13 -8 17 -18 3 -11 16 -24 29 -30 25 -11 43 -72 22 -72 -6 0 -3 -7 7 -14 9 -7 17 -23 17 -35 0 -11 5 -21 10 -21 6 0 10 -4 10 -10 0 -5 -6 -10 -14 -10 -8 0 -16 -13 -18 -30 -3 -16 -1 -30 4 -30 4 0 11 -12 14 -27 4 -16 12 -31 18 -35 7 -5 4 -12 -9 -22 -18 -13 -21 -13 -32 1 -12 16 -13 16 -13 0 0 -9 4 -17 9 -17 5 0 11 -9 14 -20 6 -25 1 -24 -199 41 -83 27 -155 49 -159 49 -4 0 -4 -11 -1 -25 6 -22 4 -24 -16 -16 -17 6 -22 15 -20 33 3 22 -2 27 -42 37 -55 14 -69 14 -61 1 12 -19 -7 -10 -25 12 -14 18 -30 23 -86 26 -72 4 -272 -11 -384 -29 -36 -6 -74 -12 -86 -13 -11 -1 -26 -6 -32 -10 -7 -4 -27 -10 -45 -12 -83 -10 -157 -32 -157 -45 0 -5 -11 -9 -25 -9 -14 0 -25 -4 -25 -10 0 -5 -5 -10 -11 -10 -19 0 -59 -49 -53 -65 4 -11 2 -13 -9 -9 -10 3 -18 -2 -22 -15 -3 -11 -14 -23 -24 -26 -10 -3 -31 -16 -45 -29 -29 -24 -117 -56 -155 -56 -14 0 -25 -7 -28 -20 -3 -11 -10 -20 -15 -20 -6 0 -8 7 -4 15 3 8 2 16 -2 16 -100 18 -145 17 -177 -6 -37 -25 -64 -38 -137 -64 -144 -51 -314 -153 -333 -199 -23 -55 -22 -134 4 -242 34 -146 72 -234 117 -269 30 -24 106 -28 182 -11 71 17 192 71 192 87 0 8 -3 13 -7 11 -215 -110 -325 -116 -383 -21 -29 48 -69 169 -76 229 -9 70 -23 70 275 -2 57 -13 106 -22 109 -19 16 15 -45 45 -153 75 -129 36 -245 84 -245 101 0 47 105 140 215 190 84 38 100 38 101 -1 1 -17 -3 -30 -7 -30 -5 0 -9 -25 -9 -55 0 -42 3 -55 15 -55 17 0 19 -9 5 -30 -6 -10 0 -22 22 -42 18 -15 28 -28 24 -28 -5 0 -3 -6 3 -13 6 -8 8 -17 4 -20 -3 -4 -1 -7 6 -7 16 0 50 -40 51 -59 0 -9 7 -11 23 -6 21 7 50 11 92 14 19 1 43 31 75 96 8 17 37 60 64 98 48 67 48 68 45 135 -4 62 -2 67 18 70 22 3 65 -33 61 -52 -1 -6 5 -22 14 -36 9 -14 19 -41 22 -60 7 -42 71 -172 80 -163 3 4 6 1 6 -5 0 -6 11 -22 24 -35 14 -14 22 -27 19 -30 -3 -4 6 -9 21 -13 14 -3 24 -9 21 -13 -5 -9 58 -14 162 -13 72 1 260 46 320 78 16 7 31 14 36 14 18 0 147 104 147 118 0 5 7 23 15 38 8 16 18 45 21 64 4 24 14 39 29 47 16 7 25 7 27 1 2 -6 13 -8 26 -4 16 5 19 11 13 24 -16 32 -33 87 -34 112 -1 18 3 25 16 24 9 -1 17 4 17 12 0 8 9 14 20 14 11 0 28 4 38 9 9 5 27 13 40 18 l24 8 -23 20 c-12 11 -19 14 -14 6 5 -9 3 -12 -6 -9 -8 3 -14 9 -14 15 0 13 -83 87 -107 96 -10 3 -18 11 -18 18 0 27 266 -20 490 -87 79 -24 92 -31 105 -58 14 -28 14 -32 -1 -43 -15 -11 -16 -13 -1 -19 33 -12 56 -69 55 -138 -1 -48 4 -73 19 -99 17 -27 19 -43 13 -76 -4 -22 -3 -41 1 -41 5 0 9 -4 9 -10 0 -5 -6 -10 -14 -10 -12 0 -12 -5 1 -30 8 -17 15 -51 15 -75 1 -25 6 -45 11 -45 5 0 5 -5 -1 -13 -6 -7 -8 -24 -5 -37 4 -13 2 -21 -3 -17 -5 3 -10 -3 -10 -14 0 -10 4 -19 8 -19 4 0 8 -4 8 -10 0 -5 -7 -10 -15 -10 -11 0 -15 -12 -15 -44 0 -34 -3 -43 -16 -42 -9 0 -19 -5 -22 -13 -3 -9 0 -11 8 -6 9 5 11 4 6 -3 -4 -7 -2 -12 4 -12 6 0 8 -5 4 -11 -4 -8 -9 -7 -14 2 -12 18 -42 -8 -35 -31 3 -10 -3 -25 -15 -35 -18 -16 -23 -17 -30 -5 -8 13 -10 13 -10 -1 0 -20 -42 -33 -73 -23 -19 6 -20 5 -8 -9 15 -19 8 -47 -11 -47 -7 0 -13 -11 -13 -25 0 -14 4 -25 9 -25 4 0 6 -9 3 -20 -3 -11 0 -20 6 -20 6 0 8 -3 5 -6 -9 -9 -48 19 -48 34 0 9 -6 12 -16 8 -9 -3 -18 -6 -20 -6 -2 0 -4 -9 -4 -19 0 -15 -7 -19 -35 -18 -44 1 -51 -7 -36 -39 17 -38 1 -49 -44 -30 -21 9 -46 16 -56 16 -16 0 -17 -4 -9 -25 8 -21 6 -30 -11 -48 -11 -12 -19 -16 -17 -8 2 7 -3 16 -11 19 -10 3 -13 -1 -8 -17 3 -14 0 -21 -8 -21 -8 0 -21 -7 -29 -15 -18 -19 -56 -4 -56 21 0 12 -7 14 -31 9 -22 -5 -34 -3 -40 6 -5 9 -6 0 -3 -21 4 -27 2 -40 -11 -50 -15 -12 -19 -12 -29 0 -6 9 -21 14 -34 12 -16 -2 -25 3 -31 20 -5 13 -7 26 -5 30 3 4 -17 23 -42 42 -47 36 -84 47 -84 24 0 -6 -7 -4 -18 5 -10 10 -35 17 -54 17 -20 0 -41 7 -48 15 -7 8 -17 12 -22 9 -5 -3 -17 1 -27 10 -17 15 -20 15 -34 2 -12 -13 -20 -13 -48 -3 -45 15 -46 17 -29 27 10 6 11 10 3 10 -7 0 -23 10 -35 23 -47 45 -57 50 -72 38 -10 -9 -16 -9 -21 -1 -9 15 9 35 45 50 17 7 30 16 30 20 0 4 11 19 25 34 15 16 25 38 24 54 0 15 -3 21 -6 15 -2 -7 -11 -13 -19 -13 -8 0 -14 -4 -14 -10 0 -5 5 -10 11 -10 6 0 -3 -11 -19 -25 -38 -32 -52 -31 -89 5 -16 16 -42 34 -57 40 -40 15 -189 15 -217 -1 -13 -7 -30 -14 -37 -15 -8 -1 -19 -9 -25 -17 -7 -8 -25 -18 -40 -21 -15 -4 -25 -11 -22 -16 8 -14 -29 -30 -68 -30 -28 0 -35 -4 -32 -17 1 -10 7 -17 13 -16 6 2 14 -6 17 -17 3 -10 19 -21 35 -25 39 -9 46 -33 16 -56 -15 -12 -23 -26 -19 -34 3 -8 0 -15 -6 -15 -6 0 -11 -10 -11 -23 0 -13 -6 -29 -12 -35 -10 -10 -10 -17 0 -32 9 -14 9 -31 3 -57 -6 -21 -14 -56 -20 -77 -5 -22 -8 -43 -5 -47 7 -13 -15 -61 -26 -54 -9 6 -15 -8 -11 -29 1 -5 -4 -13 -11 -18 -10 -6 -10 -10 -1 -16 12 -8 10 -73 -3 -115 -4 -13 -2 -17 5 -13 6 4 11 0 11 -8 0 -9 5 -16 11 -16 6 0 10 -10 9 -22 -4 -41 0 -59 10 -53 5 3 18 1 27 -4 17 -10 17 -10 0 -11 -14 0 -17 -5 -11 -22 4 -13 7 -29 7 -35 0 -7 6 -13 14 -13 7 0 13 -4 13 -10 0 -5 -4 -10 -10 -10 -16 0 -11 -35 8 -56 19 -21 27 -64 12 -64 -6 0 -10 -7 -10 -15 0 -8 5 -15 10 -15 6 0 10 -6 10 -14 0 -8 6 -16 14 -19 9 -4 12 -14 9 -28 -5 -19 -3 -20 12 -12 19 11 55 6 55 -7 0 -4 -6 -20 -14 -34 -18 -35 -10 -72 11 -54 19 15 35 -7 23 -31 -15 -27 -27 -75 -23 -88 2 -7 12 -9 20 -6 12 5 15 2 10 -10 -3 -9 -2 -19 3 -22 5 -3 7 -12 4 -19 -3 -8 -1 -17 5 -21 16 -9 13 -45 -4 -51 -10 -4 -13 -13 -9 -26 4 -14 2 -18 -5 -14 -7 5 -9 1 -5 -9 4 -9 13 -14 20 -11 13 5 18 -6 15 -27 0 -4 3 -7 8 -7 5 0 17 -8 27 -17 15 -16 15 -17 -2 -24 -16 -5 -13 -9 19 -25 35 -17 49 -34 26 -34 -5 0 -8 -4 -4 -9 3 -5 0 -13 -6 -16 -5 -4 -8 -13 -5 -21 3 -8 1 -14 -4 -14 -6 0 -10 -6 -10 -12 0 -7 -18 -37 -40 -65 -22 -29 -37 -59 -34 -67 4 -10 -9 -24 -35 -40 -26 -17 -41 -34 -41 -46 0 -12 -7 -20 -16 -20 -11 0 -14 -6 -9 -22 6 -17 4 -20 -9 -15 -12 5 -19 -1 -26 -19 -6 -15 -14 -22 -22 -18 -8 5 -9 2 -5 -10 5 -12 0 -24 -15 -37 -20 -16 -21 -20 -8 -30 13 -9 13 -10 0 -6 -16 4 -40 -15 -40 -32 0 -6 -5 -11 -11 -11 -5 0 -8 -4 -4 -9 3 -6 -5 -19 -17 -30 -12 -12 -18 -21 -14 -21 4 0 0 -7 -8 -16 -9 -8 -16 -23 -16 -33 0 -10 -13 -33 -30 -51 -16 -18 -30 -39 -30 -46 0 -7 -5 -14 -12 -16 -6 -2 -12 -11 -13 -19 -5 -28 -48 -111 -61 -116 -9 -3 -12 -14 -8 -29 4 -15 2 -24 -6 -24 -7 0 -10 -7 -6 -15 3 -8 -3 -20 -14 -28 -11 -8 -17 -17 -13 -20 10 -11 203 -8 224 3 10 6 26 25 34 43 8 18 19 39 24 47 6 8 24 47 42 85 18 39 36 72 40 75 4 3 13 17 18 30 6 14 15 32 20 40 18 29 61 127 61 138 0 7 4 12 9 12 5 0 12 15 15 34 4 19 13 39 21 46 8 7 15 23 15 36 0 12 7 30 16 39 9 9 14 19 10 22 -3 3 -1 12 6 20 6 7 8 16 5 19 -3 4 5 23 18 44 13 21 27 51 31 67 4 15 11 34 16 40 6 7 8 19 5 27 -7 17 10 25 36 18 18 -5 24 -28 7 -34 -5 -1 -10 -19 -12 -38 -1 -19 -6 -38 -11 -41 -6 -4 -12 -27 -14 -50 -2 -24 -4 -55 -6 -69 -1 -14 -10 -31 -19 -38 -18 -13 -19 -36 -5 -59 6 -9 1 -13 -17 -13 -23 0 -26 -4 -26 -35 0 -19 -5 -35 -11 -35 -6 0 -9 -7 -5 -15 3 -8 1 -25 -4 -37 -5 -13 -9 -19 -9 -13 -1 5 -8 -1 -17 -13 -8 -12 -13 -26 -10 -31 3 -4 -6 -6 -19 -3 -20 3 -24 1 -19 -12 4 -9 1 -16 -6 -16 -6 0 -10 -6 -8 -12 3 -7 -1 -19 -9 -26 -7 -8 -11 -18 -8 -23 4 -5 2 -9 -3 -9 -5 0 -8 -10 -7 -23 3 -31 -5 -47 -21 -47 -9 0 -14 -11 -14 -30 0 -17 5 -30 13 -30 8 0 9 -3 1 -8 -21 -14 -24 -55 -6 -76 16 -18 16 -19 0 -13 -9 3 -22 -1 -28 -9 -10 -11 -9 -14 4 -14 9 0 16 -4 16 -10 0 -6 55 -10 146 -10 l146 0 -17 26 c-9 14 -15 35 -12 45 3 10 1 22 -4 25 -18 10 -9 24 16 24 30 0 34 -26 8 -46 -11 -8 -13 -13 -5 -14 6 0 12 -7 12 -15 0 -8 7 -15 15 -15 8 0 15 -7 15 -15 0 -13 32 -15 228 -15 l227 1 -25 19 c-97 76 -150 129 -150 150 0 6 -4 10 -10 10 -5 0 -10 6 -10 14 0 18 -32 76 -42 76 -5 0 -8 7 -8 16 0 8 -5 12 -10 9 -6 -4 -10 -3 -9 2 3 11 -10 64 -20 83 -4 8 -13 40 -20 70 -7 30 -17 69 -22 85 -8 25 -6 237 3 300 4 29 18 36 58 29 39 -7 130 -53 130 -66 0 -4 7 -8 15 -8 8 0 12 -6 9 -14 -3 -7 2 -16 11 -20 11 -4 14 -13 10 -25 -4 -14 0 -21 13 -25 11 -4 27 -15 37 -26 10 -11 28 -20 41 -20 13 0 26 -5 30 -11 3 -6 17 -9 31 -6 17 3 28 -1 36 -14 7 -11 21 -19 32 -19 23 0 65 -26 78 -48 7 -11 12 -11 28 4 18 16 19 16 30 -14 12 -34 31 -35 22 -2 -8 32 24 22 43 -13 9 -16 11 -16 32 4 19 17 28 19 52 11 23 -8 30 -7 34 4 4 11 1 14 -13 9 -15 -5 -20 1 -25 31 -8 41 -2 58 8 21 8 -32 35 -42 52 -20 12 17 13 17 19 1 4 -10 11 -18 17 -18 5 0 7 4 4 8 -2 4 0 14 5 22 8 12 12 12 16 2 4 -10 8 -10 19 -1 8 6 25 9 39 7 14 -3 25 -2 25 2 0 12 58 33 74 27 11 -4 14 2 14 22 -1 42 14 62 23 31 l7 -25 1 28 c1 15 6 27 12 27 6 0 9 6 6 14 -3 7 3 20 12 28 16 14 19 13 30 -3 6 -11 16 -19 22 -19 5 0 8 4 5 9 -3 5 1 12 10 15 8 3 12 2 9 -4 -13 -21 25 -9 50 16 26 26 27 61 2 92 -7 8 -5 12 7 12 9 0 16 5 16 10 0 6 7 10 16 10 10 0 14 6 10 15 -4 10 5 19 27 29 39 16 97 71 97 91 0 16 -20 20 -36 8 -5 -5 -2 -1 6 7 9 8 16 27 16 42 -1 15 3 27 8 27 16 -1 25 24 19 53 -4 19 -1 28 7 28 7 0 10 -8 8 -18 -4 -12 1 -18 13 -18 11 0 19 4 19 8 0 4 -5 8 -11 8 -7 0 0 11 15 25 14 13 26 29 26 35 0 9 12 14 30 12 3 0 6 7 7 17 1 13 -4 17 -20 14 -18 -4 -22 0 -22 21 0 25 20 37 27 16 2 -6 9 -6 18 0 12 8 12 11 -3 28 -19 20 -23 37 -7 27 6 -3 10 3 10 14 0 11 10 27 23 36 18 13 20 17 7 25 -12 8 -12 11 2 27 8 10 13 24 11 31 -3 6 3 12 12 12 14 0 15 3 6 13 -6 8 -8 16 -6 19 3 3 1 17 -4 32 -6 14 -7 26 -2 26 10 0 -6 81 -17 90 -4 3 -8 17 -9 32 -1 19 2 25 12 22 7 -3 16 -1 20 5 5 10 -7 15 -27 12 -3 0 -3 12 1 27 4 15 6 32 4 39 -2 6 5 14 16 18 14 4 21 15 21 31 0 13 4 24 9 24 5 0 7 9 4 20 -3 11 -9 17 -14 14 -5 -3 -9 0 -9 5 0 6 7 11 15 11 21 0 19 12 -7 40 -17 18 -18 22 -5 17 14 -5 16 0 12 39 -3 30 -1 43 6 38 7 -4 10 3 8 17 -2 13 3 34 9 47 7 12 10 27 7 33 -4 5 -8 80 -10 165 l-3 155 31 -3 c18 -2 32 2 34 10 3 6 -3 12 -11 12 -9 0 -19 7 -22 15 -4 8 -9 13 -14 10 -4 -2 -13 14 -20 35 -7 22 -17 40 -23 40 -5 0 -7 18 -5 40 2 22 0 40 -4 40 -4 0 -5 9 -3 20 2 11 0 18 -5 15 -8 -5 -13 20 -25 130 -9 92 -14 122 -25 151 -7 16 -7 30 -2 32 5 1 7 36 4 77 -4 71 -3 75 17 75 11 0 21 4 21 9 0 5 8 8 18 7 12 -1 16 5 15 20 -2 15 9 29 32 45 19 13 35 27 35 32 0 4 7 7 15 7 8 0 15 4 15 8 0 5 26 17 58 26 42 13 64 15 83 8 81 -31 149 -147 149 -253 0 -102 8 -62 16 76 8 144 8 176 1 315 -4 75 -9 96 -21 98 -12 3 -13 7 -4 21 8 13 8 35 -1 82 -7 35 -16 95 -21 133 -4 38 -13 72 -19 75 -14 9 -41 99 -35 115 2 7 -7 22 -22 35 -19 17 -23 25 -14 31 21 13 -8 112 -32 107 -16 -3 -38 42 -30 62 5 13 8 11 10 -6 2 -13 8 -23 13 -23 14 0 11 26 -6 40 -8 7 -15 20 -15 29 0 14 -2 14 -10 1 -7 -10 -10 -11 -11 -2 -5 41 -19 60 -53 66 -29 6 -34 12 -45 54 -14 56 -52 102 -84 102 -13 0 -17 -3 -11 -8 16 -10 28 -52 14 -52 -6 0 -14 8 -17 17 -4 9 -28 38 -55 64 -26 26 -48 53 -48 60 0 7 -3 10 -6 6 -3 -3 -16 5 -29 19 -12 13 -27 24 -34 24 -6 0 -11 5 -11 11 0 6 -6 9 -12 7 -17 -6 -45 25 -40 42 3 9 -1 11 -13 6 -10 -3 -23 -2 -30 4 -11 9 -107 19 -190 20 -5 0 -4 5 2 11 15 15 70 20 99 9 60 -23 47 15 -13 39 -35 14 -42 26 -20 34 7 3 2 9 -13 15 -21 8 -26 7 -28 -10 -3 -19 -5 -19 -23 -2 -13 12 -19 13 -19 4 0 -10 -3 -10 -14 0 -8 6 -12 18 -9 26 4 12 0 14 -20 9 -18 -5 -30 -1 -46 16 -14 15 -21 18 -21 9 0 -14 -67 -80 -81 -80 -16 0 -79 65 -79 81 0 25 -11 28 -48 12 -26 -11 -32 -18 -27 -33 5 -16 2 -20 -16 -20 -12 0 -27 7 -33 15 -6 8 -24 16 -41 17 -16 1 -38 11 -47 22 -10 10 -18 15 -18 10 -1 -5 -7 3 -16 18 -13 26 -104 97 -104 82 0 -3 -6 -2 -12 3 -14 10 -29 9 -88 -2 -33 -6 -34 -6 -16 9 19 15 19 16 -8 16 -16 0 -25 -4 -21 -10 10 -16 -19 -22 -50 -10 -17 6 -32 7 -37 2 -9 -9 -58 3 -85 21 -7 5 -13 4 -13 -1z m-372 -1584 c9 -9 12 -9 12 0 0 20 65 14 85 -8 10 -11 24 -20 32 -20 7 0 13 -4 13 -9 0 -5 10 -12 23 -14 19 -4 18 -4 -5 -6 -28 -1 -39 -23 -18 -36 5 -3 6 -15 1 -28 -4 -12 -6 -28 -4 -34 3 -7 -2 -16 -11 -19 -20 -8 -11 -24 14 -24 10 0 20 -7 24 -15 3 -8 12 -15 20 -15 17 0 50 -17 93 -47 17 -13 36 -23 41 -23 6 0 30 -10 54 -21 75 -37 85 -41 104 -37 17 3 16 5 -6 26 -20 18 -22 25 -11 32 8 4 20 6 28 3 7 -3 13 1 13 10 0 8 11 23 25 33 17 13 23 25 19 40 -5 18 0 22 23 27 51 9 100 32 97 45 -1 7 0 8 3 2 10 -21 41 -9 57 23 12 22 16 25 13 10 -3 -13 -1 -23 3 -23 14 0 4 -63 -15 -100 -10 -19 -34 -48 -53 -65 -40 -33 -214 -115 -244 -115 -11 0 -28 -5 -39 -11 -30 -15 -158 -20 -202 -7 -41 12 -57 36 -56 85 3 105 -2 120 -55 175 -29 29 -64 64 -79 77 -21 18 -27 32 -27 62 0 40 7 48 28 27z m93 -1159 c4 -6 31 -14 60 -16 33 -3 59 -11 67 -21 22 -28 14 -35 -30 -27 -24 4 -60 9 -80 10 -33 3 -38 0 -39 -19 0 -11 -3 -15 -6 -8 -8 20 -43 15 -43 -7 0 -11 -6 -26 -13 -33 -8 -7 -12 -19 -10 -25 5 -13 -53 -13 -72 -1 -6 4 -17 3 -25 -3 -20 -12 -33 -11 -25 1 3 6 -1 10 -10 10 -12 0 -15 -6 -10 -19 7 -24 -11 -37 -30 -21 -10 9 -15 7 -19 -8 -4 -11 -3 -27 0 -37 5 -13 3 -16 -7 -13 -8 3 -14 11 -14 19 0 8 -4 25 -9 37 -12 34 0 83 29 116 21 24 33 29 87 32 35 2 64 8 66 13 2 6 9 8 16 5 8 -3 16 1 19 8 6 18 88 23 98 7z m165 -191 c6 -20 44 -25 44 -5 1 7 6 5 14 -5 7 -10 22 -18 34 -18 11 0 23 -6 25 -12 3 -8 6 -6 6 5 1 21 40 38 62 26 10 -5 21 -3 28 4 8 8 15 7 27 -5 12 -12 24 -14 45 -8 16 5 31 5 34 1 2 -5 15 -6 28 -4 14 3 29 -2 36 -11 8 -9 20 -16 27 -16 8 0 14 -9 14 -20 0 -11 4 -20 9 -20 5 0 9 -15 9 -34 0 -32 -13 -47 -41 -50 -4 -1 -12 -7 -16 -15 -5 -7 -14 -10 -20 -7 -15 9 -14 -7 1 -22 9 -9 9 -12 -1 -12 -9 0 -11 -8 -7 -25 4 -17 2 -25 -7 -25 -9 0 -12 -11 -11 -32 1 -20 -4 -37 -14 -45 -11 -8 -12 -12 -4 -13 6 0 12 -5 12 -11 0 -6 -6 -9 -12 -6 -17 5 -49 -59 -41 -81 6 -14 4 -15 -8 -6 -8 7 -32 11 -54 9 -22 -1 -50 2 -62 8 -16 7 -27 6 -36 -2 -18 -14 -47 -4 -47 16 0 8 -4 11 -10 8 -5 -3 -10 3 -10 14 0 14 9 23 25 27 14 3 22 10 19 15 -3 5 -1 9 5 9 5 0 12 -6 14 -12 3 -8 6 -5 6 6 1 15 4 16 15 7 11 -9 15 -8 20 5 10 26 7 52 -8 57 -9 3 -12 15 -9 31 4 17 1 26 -7 26 -7 0 -10 7 -7 14 4 9 -2 17 -13 21 -17 5 -17 8 -5 32 16 31 9 52 -9 27 -12 -16 -14 -15 -29 6 -13 19 -21 21 -54 16 -21 -4 -76 -11 -123 -15 -47 -5 -111 -18 -143 -29 -48 -17 -58 -18 -53 -6 3 9 1 12 -4 9 -6 -3 -10 -13 -10 -21 0 -8 -4 -14 -9 -14 -4 0 -8 -10 -8 -22 -1 -75 -5 -98 -18 -112 -20 -20 -19 -23 12 -31 34 -8 55 -24 47 -36 -3 -5 -2 -18 1 -29 5 -15 15 -20 39 -20 26 0 32 -4 31 -20 -1 -11 -4 -23 -8 -26 -14 -15 -6 -41 16 -52 19 -9 19 -11 3 -11 -12 -1 -16 -6 -12 -17 5 -13 2 -15 -14 -11 -12 3 -24 -1 -30 -11 -5 -10 -10 -12 -10 -7 0 6 -9 -1 -20 -15 l-20 -25 5 33 c5 29 3 32 -20 32 -30 0 -49 32 -41 71 3 18 1 29 -6 29 -20 0 -110 101 -104 117 4 8 -3 26 -13 40 -15 18 -18 30 -11 48 5 12 12 43 15 66 4 24 11 49 16 55 5 6 6 14 2 17 -3 4 -1 7 5 7 7 0 12 5 12 12 0 6 11 25 24 43 20 26 37 35 88 46 35 7 67 12 72 11 5 -2 16 3 25 11 15 13 65 19 154 20 20 0 37 4 37 9 0 16 50 3 56 -14z m-93 -1317 c-1 -18 -7 -38 -15 -42 -11 -7 -10 -11 2 -19 13 -9 13 -11 0 -20 -9 -6 -10 -10 -3 -10 9 0 9 -8 2 -30 -6 -16 -15 -30 -20 -30 -5 0 -4 -11 1 -25 6 -16 6 -25 0 -25 -6 0 -10 6 -11 13 0 6 -5 1 -10 -12 -6 -15 -6 -28 0 -35 6 -7 6 -17 1 -26 -6 -9 -5 -17 2 -22 9 -5 9 -16 0 -44 -9 -30 -8 -39 4 -51 13 -14 13 -17 -3 -29 -10 -7 -14 -14 -10 -14 4 0 3 -8 -2 -19 -8 -13 -6 -23 7 -37 9 -10 18 -30 20 -44 1 -14 7 -27 12 -28 12 -4 3 -22 -10 -22 -5 0 -11 8 -13 18 -3 9 -5 0 -6 -21 -1 -34 -4 -38 -23 -35 -18 2 -22 9 -20 31 2 22 -1 27 -18 27 -29 0 -62 19 -54 31 4 7 12 5 22 -3 15 -13 23 -14 50 -9 4 1 1 5 -7 10 -10 6 -14 33 -14 97 0 49 -3 91 -7 94 -10 6 11 120 21 120 4 0 4 13 -1 30 -5 18 -5 32 1 35 5 4 9 20 9 37 0 38 20 108 32 108 4 0 8 9 8 21 0 16 5 20 28 17 24 -3 27 -7 25 -37z"/>
<path d="M1562,4443c-13,-3,-26,-11,-29,-19c-4,-11,-9,-12,-19,-3c-10,8,-14,8,-14,0c0,-7,-7,-7,-26,1c-19,9,-61,9,-177,-1c-84,-6,-153,-16,-155,-20c-2,-5,-12,-6,-24,-3c-14,3,-19,1,-14,-6c4,-7,1,-12,-8,-12c-8,0,-23,-3,-33,-7c-16,-6,-16,-5,-4,10c12,15,11,17,-3,17c-9,0,-16,-7,-16,-15c0,-25,-48,-18,-76,12c-23,24,-25,25,-42,10c-10,-10,-22,-17,-26,-17c-5,0,-23,-7,-42,-16c-19,-9,-43,-14,-54,-11c-10,3,-21,0,-23,-6c-2,-8,-10,-6,-21,6c-21,21,-50,23,-43,3c6,-16,-19,-30,-28,-16c-4,6,-16,10,-28,10c-18,0,-19,-2,-7,-10c11,-7,9,-8,-11,-6c-13,1,-31,6,-38,11c-10,5,-12,4,-7,-3c7,-11,-44,-18,-96,-14c-10,1,-18,-2,-18,-6c0,-4,-8,-8,-17,-9c-10,0,-52,-4,-93,-8c-158,-15,-289,-24,-337,-25c-30,0,-33,-3,-33,-30c0,-29,0,-30,48,-25c26,2,83,7,127,10c44,3,94,8,112,11c29,6,68,8,271,17c46,2,87,8,90,13c4,5,623.0344742736816,32.79310307993728,107,10c103,1,242,9,330,19c28,3,86,8,130,11c44,2,103,7,130,9c28,3,92,7,143,10c51,2,96,6,100,9c4,2,43,7,87,11c44,3,82,8,84,11c2,2,-7,14,-20,27c-23,23,-109,44,-109,27c0,-4,-16,-10,-36,-12l-37,-4l23,18c12,10,18,17,14,17c-5,-1,-19,-4,-32,-6Z" style="fill:none;"/>
<path d="M4497 2587 l-58 -52 -4 -70 c-2 -38 -7 -103 -11 -143 -7 -74 -7 -74 17 -70 29 4 46 37 58 114 5 33 25 107 44 167 22 67 31 107 24 107 -7 0 -38 -24 -70 -53z"/>
<path d="M4650 1502 c0 -5 8 -17 19 -28 12 -14 20 -41 24 -82 4 -54 2 -63 -18 -82 -15 -14 -21 -30 -19 -49 2 -19 -3 -35 -16 -46 -11 -10 -20 -26 -20 -37 0 -10 -4 -18 -10 -18 -5 0 -10 -12 -10 -28 0 -15 -8 -39 -17 -52 -10 -14 -16 -25 -14 -25 5 0 -38 -85 -59 -115 -9 -14 -15 -31 -12 -39 2 -7 -2 -17 -9 -22 -12 -8 -12 -11 1 -20 13 -9 12 -10 -3 -5 -11 4 -20 0 -24 -12 -16 -49 -64 -142 -73 -142 -5 0 -12 -11 -16 -25 -3 -14 -10 -25 -15 -25 -8 0 -31 -37 -50 -82 -6 -16 -17 -28 -25 -28 -8 0 -14 -6 -14 -13 0 -7 -9 -18 -21 -25 -12 -8 -19 -21 -17 -35 2 -13 -2 -21 -9 -20 -18 4 -68 -47 -87 -89 -10 -21 -25 -38 -33 -38 -8 0 -13 -6 -11 -12 5 -14 -33 -48 -52 -48 -6 0 -9 -4 -5 -9 3 -5 1 -12 -5 -16 -6 -3 -13 1 -16 9 -8 21 -24 10 -24 -15 0 -25 -13 -24 -25 3 -12 26 -35 36 -35 14 0 -9 -8 -16 -20 -16 -11 0 -20 6 -20 12 0 7 -10 3 -22 -10 -12 -12 -19 -25 -14 -29 4 -4 11 -2 15 5 10 17 41 4 34 -14 -3 -9 -12 -13 -19 -10 -10 4 -14 -3 -14 -19 0 -19 5 -25 23 -25 17 0 19 -2 8 -9 -8 -5 -29 -7 -48 -4 -34 6 -44 -9 -23 -35 7 -9 7 -9 -2 -2 -7 6 -19 5 -32 -2 -20 -11 -20 -11 -1 -19 18 -7 18 -8 -4 -8 -13 -1 -44 -13 -69 -27 -24 -14 -52 -24 -63 -21 -10 3 -19 1 -19 -4 0 -5 658 -9 1631 -9 l1630 0 -2 148 c-2 90 -7 150 -13 155 -8 6 -7 10 2 14 15 6 17 143 1 143 -6 0 -8 9 -4 20 3 11 2 20 -3 20 -5 0 -7 12 -4 26 4 23 2 25 -17 19 -12 -4 -21 -2 -21 4 0 6 -10 11 -22 11 -13 0 -18 -4 -13 -8 6 -4 -2 -19 -19 -37 -16 -16 -27 -23 -24 -14 5 12 1 15 -16 12 -13 -3 -30 2 -39 11 -9 10 -23 13 -34 9 -17 -6 -17 -6 -1 10 9 9 21 17 27 17 6 0 11 5 11 11 0 6 -7 8 -17 5 -16 -6 -33 9 -33 29 1 6 7 1 15 -9 8 -11 15 -14 15 -8 0 24 39 11 64 -20 18 -22 26 -28 26 -17 0 9 7 19 15 23 21 8 19 28 -2 25 -49 -4 -57 10 -19 30 22 12 22 15 9 31 -9 10 -23 15 -35 12 -11 -2 -15 -8 -9 -11 5 -4 7 -12 3 -18 -9 -14 -35 3 -45 30 -5 12 -1 17 13 17 11 0 20 5 20 11 0 7 -9 9 -21 6 -12 -3 -22 0 -26 9 -8 21 -18 17 -31 -12 -7 -14 -16 -23 -21 -20 -5 4 -7 -3 -4 -13 4 -18 2 -19 -34 -10 -27 6 -41 5 -48 -4 -5 -7 -21 -11 -34 -9 -12 2 -35 1 -49 -3 -20 -5 -23 -8 -12 -15 8 -5 12 -12 9 -15 -8 -8 -39 5 -39 16 0 5 -9 9 -20 9 -13 0 -20 7 -20 20 0 16 7 20 30 20 17 0 30 -4 30 -10 0 -15 27 -12 44 5 8 8 21 12 29 9 8 -3 18 -1 21 4 3 5 -10 13 -29 16 -19 4 -35 11 -35 16 0 6 -7 10 -15 10 -8 0 -15 7 -15 15 0 18 -31 20 -49 3 -11 -11 -12 -8 -7 15 7 28 6 29 -26 22 -34 -7 -62 -25 -40 -25 7 0 12 -10 12 -22 0 -19 -2 -20 -10 -8 -6 10 -10 11 -10 3 0 -7 -5 -13 -11 -13 -5 0 -7 5 -3 12 5 8 -2 9 -24 5 -18 -4 -32 -2 -32 3 0 5 -6 7 -12 5 -18 -7 -42 11 -34 24 4 6 16 11 27 11 11 0 17 -4 14 -10 -4 -6 9 -10 32 -10 l38 0 -25 20 c-21 17 -23 21 -10 29 8 6 32 13 52 16 21 4 38 10 38 15 0 4 9 6 20 3 11 -3 20 0 20 6 0 13 117 15 172 2 45 -11 42 -2 -15 36 -53 36 -77 47 -101 44 -11 -2 -16 2 -12 8 8 12 -2 14 -49 12 -21 -1 -26 1 -17 7 10 7 3 12 -25 17 -47 10 -173 12 -167 4 2 -4 -3 -9 -11 -13 -8 -3 -17 -1 -20 4 -10 17 -65 12 -65 -5 0 -15 -11 -19 -38 -16 -21 3 -55 -31 -41 -40 8 -4 4 -9 -9 -13 -14 -5 -19 -12 -15 -23 4 -10 2 -14 -7 -11 -17 5 -20 46 -5 62 9 9 9 14 -2 24 -7 7 -13 9 -13 3 0 -21 -48 -19 -95 4 -28 13 -58 25 -68 25 -10 0 -28 6 -40 14 -34 22 -86 30 -103 15 -12 -10 -13 -9 -8 6 7 16 3 17 -26 12 -40 -8 -67 8 -49 29 6 8 18 14 26 14 12 0 13 3 3 14 -6 8 -10 25 -8 38 2 19 -2 24 -24 26 -16 2 -28 0 -28 -5 0 -4 -21 -9 -46 -11 -26 -1 -43 2 -40 7 3 5 16 7 28 3 14 -3 19 -2 14 6 -4 7 -14 12 -22 12 -7 0 -19 9 -26 20 -7 11 -22 20 -33 20 -16 0 -17 -2 -5 -10 21 -13 10 -18 -28 -13 -27 5 -32 9 -26 26 5 16 3 19 -12 13 -9 -4 -20 -2 -23 3 -8 13 -46 18 -44 6 1 -6 -24 -10 -58 -9 -64 0 -84 8 -45 18 44 11 19 49 -46 70 -20 6 -25 -10 -5 -17 9 -4 9 -8 -2 -15 -16 -11 -51 -4 -51 10 0 6 -11 8 -23 4 -19 -4 -26 0 -35 18 -6 13 -30 31 -56 42 -25 11 -46 25 -46 33 0 19 -39 51 -62 51 -10 0 -18 -6 -18 -14 0 -24 -18 -28 -50 -11 -16 8 -33 16 -37 18 -4 1 -7 9 -6 17 2 10 0 10 -3 3 -8 -19 -27 -16 -20 3 3 9 -4 25 -19 40 -24 24 -45 31 -45 16z"/>
<path d="M1825 207 c-11 -7 -22 -13 -25 -15 -2 -2 2 -8 10 -13 12 -8 10 -10 -7 -6 -18 4 -23 1 -23 -14 0 -10 -4 -19 -10 -19 -5 0 -10 -11 -10 -25 0 -18 -5 -25 -18 -25 -10 0 -28 -10 -40 -23 -22 -24 -28 -38 -14 -36 19 3 23 -2 12 -17 -12 -13 -7 -15 41 -12 46 3 54 6 55 23 0 11 12 43 25 70 14 28 24 62 23 78 -2 18 2 27 12 27 8 0 12 5 9 10 -8 12 -15 12 -40 -3z"/>
</g>
</svg>