<?xml version="1.0" encoding="UTF-8"?>
<svg enable-background="new 0 0 312.96 118.32" viewBox="0 0 312.96 118.32" xmlns="http://www.w3.org/2000/svg">
 <path d="m166.32,6.48c.431-.03.506.294.96.24 .237.563.421,1.179.48,1.92 1.032.488 1.574,1.465 2.16,2.4 1.278-.162 1.863-1.017 2.64-1.68 1.205.656 1.793-.55 2.64-.96 1.474.472 2.351,2.214 3.36,3.6 .487.669 1.132.832 1.439,1.92 .566,1.995-.076,4.44 0,6.72 .086,2.533.732,4.893.24,7.2-1.105-.533-.317-3.354-.479-5.28-.13-1.541.196-4.899 0-6.72-.305-2.823-2.496-3.57-3.12-5.52-1.884-.248-2.305.713-3.84.24-2.044,1.085-2.164,3.765-1.92,6-1.17.13-.494-1.586-.96-2.16-.622-1.379-.931-3.069-1.44-4.56-.427-.448-.61.195-1.44,0 .149-1.509-.69-2.03-.72-3.36z" fill-rule="evenodd"/>
 <path d="m163.2,8.88c.429-.067.493.227.24.24-.577,3.789-.746,9.091-.72,13.92 .008,1.531.296,3.148-.24,4.32-.848-1.822-.525-4.215-.48-6.24 .094-4.202-.321-8.712 1.2-12.24z" fill-rule="evenodd"/>
 <path d="m151.2,9.84c.751.229-.121,3.997-1.2,4.08 .564-1.195 1.078-2.442 1.2-4.08z" fill-rule="evenodd"/>
 <path d="m151.92,10.56c.48.16.364,2.032.24,3.36-.15,1.602-.601,3.34-.72,4.56-.5-1.997.416-5.852.48-7.92z" fill-rule="evenodd"/>
 <path d="m153.36,11.76c.512,1.558.295,5.729-.24,6.24-1.142-.727-.2-4.779.24-6.24z" fill-rule="evenodd"/>
 <path d="m144.48,14.16c1.208.278-.151,1.631.24,2.64-.509-.764-.966-1.895-.24-2.64z" fill-rule="evenodd"/>
 <path d="m147.84,14.64c.865-.064.078,1.86 0,2.4-.726-.588.182-1.562 0-2.4z" fill-rule="evenodd"/>
 <path d="m150.24,15.36c1.385.231.408,4.188.48,4.8 .042.357.219.78.24-.72-.223,1.855.524,4.622.24,6.48-.079.516-.08,1.714-.96,1.68-.051-4.382.007-7.634 0-12.24z" fill-rule="evenodd"/>
 <path d="m154.32,17.04c.726.604-.171,3.146 0,.72-.288-.315-.093-.378 0-.72z" fill-rule="evenodd"/>
 <path d="m147.36,17.52c.156-.677.279.553.24.72-.111.482-.451.194-.24-.72z" fill-rule="evenodd"/>
 <path d="m226.8,18.48c.43-.03.506.294.96.24 .111.751-.209,1.071-.96.96-.308-.315-.308-.885 0-1.2z" fill-rule="evenodd"/>
 <path d="m143.76,18.96c.973-.093.264,1.496.479,2.16-.795-.084-.376-1.383-.479-2.16z" fill-rule="evenodd"/>
 <path d="m144.72,19.2c.402-.691.191,1.226.24,1.68-.402.691-.191-1.226-.24-1.68z" fill-rule="evenodd"/>
 <path d="m155.52,19.2c.646.584.01,1.916 0,2.64-.645-.584-.01-1.916 0-2.64z" fill-rule="evenodd"/>
 <path d="m235.44,20.64c.723-.235 1.133,1.901 1.68,2.64-.993-.447-1.112-1.768-1.68-2.64z" fill-rule="evenodd"/>
 <path d="m153.36,20.88c.537.104.097,1.183.24,1.68-.743-.434-.128-.735-.24-1.68z" fill-rule="evenodd"/>
 <path d="m147.12,21.36c.276-.776.271.645.24.96-.277.777-.272-.645-.24-.96z" fill-rule="evenodd"/>
 <path d="m144,21.84c.593-.04.881,1.576.96,0 .451.64.199,1.803.24,2.88 .027.711.834,2.093-.24,2.16v-4.08c-1.203.733-.175,2.335-.48,4.08-.66-.654-.407-3.135-.48-5.04z" fill-rule="evenodd"/>
 <path d="m156.24,23.04c.51-.101.117,2.757.24,3.84-.51.101-.116-2.757-.24-3.84z" fill-rule="evenodd"/>
 <path d="m151.92,24.72c.091-.457.305.153.24.48-.091.457-.306-.153-.24-.48z" fill-rule="evenodd"/>
 <path d="m140.4,29.52h.48v.48h-.48v-.48z" fill-rule="evenodd"/>
 <path d="m159.12,29.76c.861-.141 1.161.279 1.681.48v1.68h-2.641c.498-.462 1.396-.524 1.681-1.2-.098-.463-1.1-.021-.721-.96z" fill-rule="evenodd"/>
 <path d="m147.36,31.68c1.864-.296 4.062-.258 6.24-.24-3.71.524-7.713.619-11.76.72-11.299.283-24.398-.179-36.72-.72-9.37-.412-18.698-.08-26.88-.48 21.93-.618 45.274.992 66.72.72 .521.041.109-.852.24-1.2 .873-1.173 2.129.091 2.16,1.2z" fill-rule="evenodd"/>
 <path d="m175.44,31.68c-.412.467-1.242.517-2.16.48-.112-.752.604-.677.96-.96 .071-.631-.931-.189-.72-.96 1.171-.874 1.307.994 1.92,1.44z" fill-rule="evenodd"/>
 <path d="m188.88,31.2c.973-.468 2.369-.511 3.84-.48 1.031.273-3.1.446-3.84.48z" fill-rule="evenodd"/>
 <path d="m199.92,30.72c-.527.733-1.537-.277 0,0z" fill-rule="evenodd"/>
 <path d="m75.84,30.96c-1.104.562-4.128.092-1.44,0 .452-.016.928.012 1.44,0z" fill-rule="evenodd"/>
 <path d="m187.44,30.96c-.688.797-1.475.173-2.64.24-.457-.472 1.925-.143 2.64-.24z" fill-rule="evenodd"/>
 <path d="m276.96,31.44c-.546-.475-1.342.255-2.4,0 .373-.245 2.275-1.053 2.4,0z" fill-rule="evenodd"/>
 <path d="m206.64,31.44c-.041-.521.852-.109 1.2-.24 .04.521-.851.109-1.2.24z" fill-rule="evenodd"/>
 <path d="m208.32,31.44c.411-.549 1.832-.088 2.641-.24-.412.549-1.833.088-2.641.24z" fill-rule="evenodd"/>
 <path d="m211.92,31.44c.103-.537 1.183-.097 1.68-.24-.103.537-1.183.097-1.68.24z" fill-rule="evenodd"/>
 <path d="m257.52,31.44c.03-.53 1.018-.102 1.44-.24-.03.53-1.018.102-1.44.24z" fill-rule="evenodd"/>
 <path d="m273.36,31.2c-.527.733-1.537-.277 0,0z" fill-rule="evenodd"/>
 <path d="m66.72,31.44c-.844.917-3.441.079-4.56.72 .625.858 3.162.48 4.8.48 .838,0 1.831-.035 2.64,0 .641.027 1.856-.388 1.92.48-13.092-.143-25.124.079-37.68-.24-.429.068-.492-.227-.24-.24 1.933.081 3.058-.178 4.56,0 .689.049 1.219-.061 1.44-.48 1.512.697 3.492.052 5.28,0 7.116-.207 14.798.04 21.84-.72zm-8.4,1.2c.425-.055 1.202.242.96-.48h-.96v.48zm1.68,0c.603-.198 2.066.466 1.92-.48-.602.198-2.066-.467-1.92.48z" fill-rule="evenodd"/>
 <path d="m155.04,31.68c.041.52-.851.108-1.2.24 .166-.753.64-.313 1.2-.24z" fill-rule="evenodd"/>
 <path d="m227.76,31.92c.138-.29 1.553-.49 1.439-.24h3.84c-.354.53-3.733.102-5.279.24z" fill-rule="evenodd"/>
 <path d="m259.92,31.68c.726-.554 2.475-.085 3.6-.24h3.84c-2.001.559-5.039.081-7.44.24z" fill-rule="evenodd"/>
 <path d="m28.8,31.68c1.192.423 2.086-.06 3.6.24-.608.279-3.376.663-3.6-.24z" fill-rule="evenodd"/>
 <path d="m157.68,31.68c-1.719.717-2.755-.268 0,0z" fill-rule="evenodd"/>
 <path d="m164.4,31.92c.333-.547 1.671-.089 2.4-.24-.333.547-1.671.09-2.4.24z" fill-rule="evenodd"/>
 <path d="m167.04,31.92c-.04-.521.852-.109 1.2-.24 .041.52-.851.109-1.2.24z" fill-rule="evenodd"/>
 <path d="m295.68,31.92c-2.01.71-5.57-.13-6.72,1.44-2.701-.333-5.84.176-9.601,0-.488.139-1.891-.164-.72-.24h1.68 3.36c.724-.316 2.056-.024 2.64-.48-2.075-.645-4.986-.453-7.68-.48 .514-.469 3.485-.333 5.52-.24 3.978.181 8.323.067 11.521,0z" fill-rule="evenodd"/>
 <path d="m186.24,31.92c-1.188,1.197-3.529-.201-5.52.24 .433-.532 3.896-.1 5.52-.24z" fill-rule="evenodd"/>
 <path d="m195.84,31.92c-.138.75-3.445.595-3.12.24 .648-.472 2.097-.143 3.12-.24z" fill-rule="evenodd"/>
 <path d="m72.48,33.12c28.776-1.209 54.51.188 83.04,0 .429-.068.492.227.24.24-14.523.444-28.976.109-42.96-.48-13.203-.556-26.664,1.318-40.32.24z" fill-rule="evenodd"/>
 <path d="m230.88,32.88c.074-.326.601-.199.96-.24-.074.326-.601.199-.96.24z" fill-rule="evenodd"/>
 <path d="m206.88,32.88c-.527.733-1.537-.277 0,0z" fill-rule="evenodd"/>
 <path d="m236.88,33.12c.332-.547 1.67-.09 2.399-.24-.332.547-1.669.09-2.399.24z" fill-rule="evenodd"/>
 <path d="m247.44,32.88c-1.587.569-5.527.072-1.92,0 .634-.013 1.307.01 1.92,0z" fill-rule="evenodd"/>
 <path d="m282.72,34.08c.255-.545 1.509-.091 2.16-.24-.255.545-1.508.091-2.16.24z" fill-rule="evenodd"/>
 <path d="m228.48,34.8c1.363-.557 3.758-.082 5.52-.24-1.363.557-3.758.082-5.52.24z" fill-rule="evenodd"/>
 <path d="m292.32,36.96c.102-.534 1.273-.188 1.44,0-.101.534-1.273.188-1.44,0z" fill-rule="evenodd"/>
 <path d="m294,40.08c.18-.542 1.347-.094 1.921-.24-.179.541-1.347.094-1.921.24z" fill-rule="evenodd"/>
 <path d="m301.68,40.8c-4.839,1.111-11.422,1.829-18,1.92-1.275-.347 1.556-.227 2.16-.24 5.137-.703 10.444-1.236 15.84-1.68z" fill-rule="evenodd"/>
 <path d="m292.56,43.2c-.527.733-1.537-.277 0,0z" fill-rule="evenodd"/>
 <path d="m291.84,44.4c.074-.326.601-.199.96-.24-.074.326-.601.199-.96.24z" fill-rule="evenodd"/>
 <path d="m291.12,44.4c-1.022.735-2.051-.294 0,0z" fill-rule="evenodd"/>
 <path d="m294.72,60.96c-.527.733-1.537-.277 0,0z" fill-rule="evenodd"/>
 <path d="m289.68,61.68c-1.807.575-6.228.065-2.16,0 .75-.012 1.446.009 2.16,0z" fill-rule="evenodd"/>
 <path d="m299.041,62.4c-.041-.521.851-.109 1.199-.24 .041.521-.851.109-1.199.24z" fill-rule="evenodd"/>
 <path d="m45.84,63.36c-.527.733-1.537-.277 0,0z" fill-rule="evenodd"/>
 <path d="m34.8,63.6c-.527.733-1.537-.277 0,0z" fill-rule="evenodd"/>
 <path d="m46.8,64.32c-1.578.441-4.146.495-5.52,0 1.466-1.633 3.547.571 5.52,0z" fill-rule="evenodd"/>
 <path d="m36,63.84c-.527.733-1.537-.278 0,0z" fill-rule="evenodd"/>
 <path d="m36.48,64.32c-.041-.521.851-.109 1.2-.24 .04.521-.851.108-1.2.24z" fill-rule="evenodd"/>
 <path d="m38.88,64.32c-.527.733-1.537-.277 0,0z" fill-rule="evenodd"/>
 <path d="m48,64.32c-.527.733-1.537-.277 0,0z" fill-rule="evenodd"/>
 <path d="m56.4,64.56c.074-.325.601-.198.96-.239-.074.325-.601.199-.96.239z" fill-rule="evenodd"/>
 <path d="m40.8,64.56c-.527.733-1.537-.277 0,0z" fill-rule="evenodd"/>
 <path d="m262.56,65.04c-.527.733-1.537-.277 0,0z" fill-rule="evenodd"/>
 <path d="m265.68,65.04c-.527.733-1.537-.277 0,0z" fill-rule="evenodd"/>
 <path d="m259.92,65.52c.744-.023 1.146.294 1.68.48-.05.265-1.782.201-1.68-.48z" fill-rule="evenodd"/>
 <path d="m47.52,66c.885-.555 2.796-.084 4.08-.24 1.833.315-1.868.247-2.64.24 .834,1.089 3.972.185 5.76.48 .703-.497 1.466-.935 2.88-.721-.232.46-1.148.858-1.68.96-2.757.53-6.724.333-9.36.24-.352-.852 2.624-.323.96-.959z" fill-rule="evenodd"/>
 <path d="m262.08,66.24c.104-.537 1.184-.098 1.681-.24-.104.537-1.183.098-1.681.24z" fill-rule="evenodd"/>
 <path d="m35.76,67.68c.387-.067.413.228.72.24 .095.466-1.093.351-.72-.24z" fill-rule="evenodd"/>
 <path d="m296.88,81.6c.332-.547 1.67-.089 2.399-.239-.332.546-1.669.088-2.399.239z" fill-rule="evenodd"/>
 <path d="m300.48,81.36c-.527.733-1.537-.277 0,0z" fill-rule="evenodd"/>
 <path d="m300.96,81.6c.029-.529 1.018-.102 1.439-.239-.028.529-1.017.101-1.439.239z" fill-rule="evenodd"/>
 <path d="m293.76,82.56c-.91,1.103-2.093.456-3.84.721 .449-1.073 2.935-.106 3.84-.721z" fill-rule="evenodd"/>
 <path d="m278.64,91.44c.192.912-1.135.305-1.68.479 .034-.686 1.001-.438 1.68-.479z" fill-rule="evenodd"/>
 <path d="m284.88,91.68c-.489.551-1.993.087-2.881.24 .137-1.008 2.309-.35 2.881-.24z" fill-rule="evenodd"/>
 <path d="m275.76,91.68c-1.718.717-2.755-.268 0,0z" fill-rule="evenodd"/>
 <path d="m258.96,93.12c.69.401-1.227.19-1.681.24-.112.512.343.457.72.479-.555.539-2.26.192-2.88,0 .304-1.216 2.49-.551 3.841-.719z" fill-rule="evenodd"/>
 <path d="m270,94.32c-1.739.694-4.073-.084-6,0-.141-.307 2.028-.664 2.4,0 1.445-.051 2.105-.473 3.6,0z" fill-rule="evenodd"/>
 <path d="m261.84,94.08c-1.022.735-2.051-.294 0,0z" fill-rule="evenodd"/>
 <path d="m275.041,94.32c-.82.838-2.418-.049-4.08.239 .193-.378 2.962-.677 4.08-.239z" fill-rule="evenodd"/>
 <path d="m285.84,94.8c-.761.556-2.176.253-3.601.24-2.288-.021-4.794-.053-6.96-.24 3.011-.994 7.342.327 10.561,0z" fill-rule="evenodd"/>
 <path d="m289.44,95.04c-1.387.575-4.457.061-1.44,0 .573-.012.895.009 1.44,0z" fill-rule="evenodd"/>
 <path d="m300.48,95.76c-2.228.553-3.396-.692 0,0z" fill-rule="evenodd"/>
 <path d="m301.68,96.24c-.058.422-.413.547-.96.479-.112-.746.604-.857.96-.479z" fill-rule="evenodd"/>
 <path d="m298.8,96.72c-.257.225-.075.886-.721.721-.042-.525.198-.764.721-.721z" fill-rule="evenodd"/>
 <path d="m299.28,96.96c-.04-.521.852-.108 1.2-.24 .04.52-.852.109-1.2.24z" fill-rule="evenodd"/>
 <path d="m51.12,97.68c-7.255-.187-14.237.302-20.88.721-1.716.107-3.704.146-4.8-.48-.468.033.113.373.24.24-.375.393-2.297.302-3.12,0 3.362-.44 7.242-1.193 10.56-1.2 .408-.001.453.12.48.48 4.598-.676 9.619-.365 14.88-.24 .806.018 2.152-.43 2.64.479zm-22.56.48c.495-.146 1.667.387 1.44-.48h-1.44v.48z" fill-rule="evenodd"/>
 <path d="m295.2,97.2c-1.022.735-2.051-.294 0,0z" fill-rule="evenodd"/>
 <path d="m162.48,110.88c.928,1.813.398,4.583.72,6.48-1.445-1.123.071-4.376-.72-6.48z" fill-rule="evenodd"/>
 <path d="m166.56,111.12c1.043,1.44-.085,5.646-2.88,6.24 1.587-1.454 3.098-2.982 2.88-6.24z" fill-rule="evenodd"/>
 <path d="m155.52,111.36c.185-.204.771,2.513 0,2.64-.859-.102-.675-1.245-.72-2.16 .474-.906-.059,1.145.48.96 .53-.029.102-1.018.24-1.44z" fill-rule="evenodd"/>
 <path d="m161.52,111.12c.809,1.099 1.327,5.27 0,6.24 .593-1.962.258-4.011 0-6.24z" fill-rule="evenodd"/>
 <path d="m151.2,111.36c.642.773.178,1.228.24,2.399-.547-.331-.089-1.669-.24-2.399z" fill-rule="evenodd"/>
 <path d="m163.68,111.6c.8.935.112,1.895.24,3.36 .26.649 1.15.125.479,1.2-1.372-.387-.448-3.07-.719-4.56z" fill-rule="evenodd"/>
 <path d="m178.32,111.84c.64.325-.146,4.143.48,5.28h-1.44c-.073-1.833.038-3.482.24-5.04 .236.917.783,1.265.72-.24zm0,4.56c-.009-.791.099-1.698-.72-1.681 .032.768-.236,1.838.72,1.681z" fill-rule="evenodd"/>
 <path d="m174.24,112.8c.613-.675-.159,2.065.48,2.16 .547-.333.089-1.671.24-2.4 .904.504-.23,3.453.239,4.32-.38.021-.915-.115-.96.24-.202-.691.14-2.894.001-4.32z" fill-rule="evenodd"/>
 <path d="m151.44,114.48c.063-.216 1.108,2.936 0,3.119 .591-.825-.292-1.835 0-3.119z" fill-rule="evenodd"/>
 <path d="m146.4,27.6c.742,1.018 3.287.233 4.8.48 .613-.027.476-.804.48-1.44 .613.027.476.804.48,1.44h2.16c.711-2.58-.314-5.424 0-8.4 .801.94.155,1.865.24,2.88 .136,1.624.991,3.11.72,5.28 .179.542 1.346.094 1.92.24 .619-2.948-.562-8.643.24-12.48 .484,4.654.101,6.784.24,12.24 2.161.559 5.358.081 7.92.24-.381-6.71.022-14.571-.24-19.44-.682-.042.29,1.57-.72,1.2 .128-.832-.356-2.276.479-2.4 1.647.807.96,3.656.96,5.76v6.72c.312-1.779.763-3.915 1.2-5.52 .116-.424-.419-1.504.48-1.44-.011,4.789.131,9.731-.48,13.92-1.243-1.841.719-5.538-.24-8.4-.123,3.125-1.369,5.92-.72,9.6 2.027-.358 4.224.894 5.521-.24-.652-1.47-.002-3.173 0-4.8 .003-3.026-.377-6.547.239-9.12 .077-.319.351-1.177.96-1.2-1.149,3.991-.846,8.933-.96,13.44 .95-.685.737-2.094.96-3.12 .661-3.036 1.545-6.577 2.16-9.84 .423-.603.396-.169.96-.48 .175-.734-.414-.706-.239-1.44 1.243.366.419,1.575.479,2.4 .256,3.516.813,8.414.96,12.24 1.395-.978.555-2.957.48-4.56-.112-2.407-.112-5.174-.24-7.44 .631,3.598 1.163,9.623.479,12.96h-1.199c-.27-4.131-.452-8.348-.721-12.48-1.046.428-1.188,1.835-1.439,2.88-.76,3.152-1.193,7.336-2.4,10.32 1.265,1.262 3.865.72 6.24.72 3.985,0 8.297.039 12.72.24 3.861.175 8.207.733 11.28-.24 .36.28.587.693 1.2.72 9.659.476 17.312-.051 25.68.24 1.703.06 3.369.517 5.04,0v-1.92c-1.041-1.159-2.414-1.478-3.36-2.64-.908-1.116-.731-3.541-2.64-3.6-1.211-.091-.42,1.82-1.44,1.92-.538-.41-.899-1.772-1.199-2.64-.68-1.969-1.077-4.152 1.199-4.8 3.343-.952 6.73,2.315 9.601,2.16 1.274,1.01 2.707,1.575 4.32,1.68-.56,1.703-1.617.449-2.641,0-.976-.428-2.545-1.511-3.6-1.68-4.041-.646-6.362-3.146-8.641.24 .034,1.166.174,2.226.721,2.88 1.345-.015 1.812-.907 2.64-1.44 1.559.681 2.145,2.336 3.12,3.6 .352.344.761.184.72-.48 .92.84 1.207,2.313 2.4,2.88 .208-.929-.586-.854-.72-1.44 1.148-.888-.015-1.508-.24-2.88 .511.858 1.923,3.826 4.319,3.12-.127-1.473-1.951-1.249-1.92-2.88 1.08,1 1.771,2.389 3.601,2.64 .399.477-.021.305 0,.96 .864-.064 1.156.443 1.92.48-.206-1.394-1.961-1.239-1.92-2.88 .773.186 1.418.501 1.92.96 1.091-.6 1.297-1.163.72-2.4 1.086-.754 2.104-1.576 2.64-2.88-1.671.648-1.986,2.652-4.56,2.4 .908-.94 1.303-.421 2.4-1.2 .765-.543 1.61-1.829 2.399-2.88 1.544-2.056 2.4-4.605 3.601-1.2 .534.425 1.575.345 1.68,1.2-1.483,3.077-5.821,3.298-6.72,6.96-.496.464-1.335.585-1.92.96 .203.517.591.849 1.439.72-1.842,1.25-5.436.387-6,3.36-.211.771.791.329.72.96 14.986.114 29.366.23 41.04.24 4.128.004 8.674.045 12.961.24 3.952.18 8.021-.11 11.52,1.2-.158.791-1.109.414-.48,1.44-2.428,1.771-5.425,1.49-8.64,2.4 .44.519 1.415.505 2.4.48-.061.7.451.828.72,1.2 2.201.039 3.626.854 5.76.96-.64,2.082 2.487,2.125 1.2,3.84 .501.459 1.479.44 1.68,1.2-2.63.57-3.907,2.492-6.479,3.12 .753.527 1.914,2.267.479,2.88 1.684.156 3.051.629 4.32,1.2-.076,1.032 1.149,2.78-.48,3.36 .027.454.794.167.721.72-.252,1.287-1.104,1.481-.96,2.64 .028.401 1.023-.274.96.72-1.143-.326-2.064.622-3.12.96-8.44,2.703-21.197,1.902-31.92,1.68 1.149-1.268 3.473-.804 5.76-.96 1.299-.088 2.616-.419 3.84-.48 5.809-.287 11.755.486 17.521-.96 .631-.287-1.132-.822-.24-1.44 2.456.137 4.237-.607 6-.72 1.202-1.104-.401-2.176 1.2-2.88-.87-.316-.795-1.281-.24-1.92-1.654-.863-4.601-.756-6.24-.96-.085-1.685 2.234-.966 2.641-2.16-3.632-1.208-6.724.084-9.841-.24 .379-.885 1.716-.899 2.641-1.2 1.749-.568 4.102-1.022 6.239-1.68-1.037-.348-2.89.182-4.8-.24-.865.098-.329-.438.24-.24 3.526-.521 6.896.15 9.12-1.44-3.166-.521-6.242.168-9.84.72h-1.68c3.535-.506 7.465-1.485 10.56-1.68 .173-.733-.245-.875-.24-1.44-.812-.31-3.184.145-4.319-.96 1.309,1.294-1.734.498-2.881.72-.107-.668 1.309.188 1.2-.48-5.439-.138-10.179.106-14.88.24 .378-.904 1.671-.46 2.4-.48 5.996-.166 12.033-.77 18.239,0-1.608-1.062-4.42-1.689-5.76-1.68-.935.398-.273-.637-.72-.96-1.238-.896-3.994-.174-5.521-.96-.347-.908.66-.46.48-1.2-.393-.546-4.993.019-3.12-.48 5.073.491 9.416-.954 13.2-.96 .672-.127.443-1.156.72-1.68-6.142-.589-15.346-1.213-22.56,0-.48-.622-3.353-.599-4.561-.72-3.764-.377-8.971.055-12.479-.24-2.4-.202-4.859,0-7.2,0-2.18,0-4.362-.279-6.24.24 .074.326.601.199.96.24-1.202.397-3.422-.254-5.28,0 .727-.554 2.476-.085 3.601-.24-.68-.866-2.634-.48-4.08-.48-2.244,0-4.534-.193-6,.48-.511-.235-.894-.103-1.44-.72-.97.575-1.879.009-2.399.72-4.915-1.05-10.233-.312-15.36-.48-2.15-.071-4.021-.281-6.24-.24-11.111.206-23.214-1.089-35.04-1.2-14.28-.134-30.405.295-43.68-.24-.49.23-.95.49-1.44.72-.771.211-.329-.791-.96-.72-7.504-.233-17.109.231-25.44.24-8.298.009-16.527-.883-24.48-.24-1.301.105-2.808.688-4.32.72-3.221.07-6.572-.415-9.84-.24-14.176.758-28.877,1.192-42.72.72-.53.03-.102,1.018-.24,1.44-.941.221-.174-1.266-.72-1.44-3.777-.047-4.757.514-7.68,0 .352,1.168 2.002,1.038 2.88,1.68 .102.501-.165.635-.24.96 2.767,2.033 6.738,2.862 11.04,3.36-1.403.923-4.05-.538-6,.48 1.288.872 3.238,1.083 3.12,3.36 1.56.281 2.674,1.006 3.84,1.68-.451.669-1.026,1.214-1.44,1.92 .966.794 2.655.865 3.6,1.68 .201.635-.095.809-.48,1.2-.865.877-2.353.898-4.08,1.68-1.208.547-1.915,1.508-3.12,1.44 .571,1.442 1.43-.266 2.4.48 .13,1.25-1.892.348-2.16,1.2 .392.922 1.409-.029 1.92.48 .205,1.324-1.586.653-2.16,1.2 2.254,1.426 6.697.663 7.92,3.12-1.573.267-2.597,1.083-4.56.96 .372.799 2.587.753 1.2,1.92 7.079-.924 15.882-.298 23.04.72-1.57.624-3.239.879-4.8.96-1.41.073-2.755-.48-4.08-.48-1.984,0-3.834.883-6,1.2-3.7.542-7.57.702-12,.96-.465.361.42,1.011-.48,1.2 1.528,1.032 4.532.589 6.48,1.2 .247.967-.374,1.066-.72,1.439 5.365.176 10.218-.178 15.6.24-.958.962-3.133.707-5.04.721-.92.043-.087-.197-.24-.721-1.595.085-2.987.373-4.8.24-.24.56-.528,1.072-.96,1.44-3.344-.912-5.944.423-9.36.72-.806.219-.119.446-.24,1.2-1.476.604-3.368.792-4.32,1.92 .944.416 1.719,1.001 3.12.96 .042,3.317-.15,6.87.24,9.84-.961,1.918-2.476,3.284-4.56,4.08 1.367.633 2.77,1.229 4.08,1.92-.16,1.439.217,2.342.24,3.6 13.306.906 26.662,1.043 39.12,1.44-1.367.609-3.845.958-6,.96-11.387.013-24.735-1.028-36,.479 .395,1.286 2.685.675 3.12,1.921-.55,1.45-3.399.601-4.32,1.68 .271.494.16,1.627-.96,1.92 .531,1.229 1.854,1.666 1.68,3.6-1.106.254-1.827.894-2.64,1.44 .463,1.535 2.23.85 3.12.96 3.883.481 7.59.822 11.52.96 9.626.337 19.429.738 29.28.72 13.047-.023 28.35-.07 42,.48 2.282.092 4.823.141 7.92,0 7.174-.326 14.382.287 21.6.24 9.008-.06 18.053-.48 27.12-.48 9.741,0 19.529,1.071 29.28.24 1.85-.158 4.909-.126 7.681,0 6.312.286 12.995-.304 19.68,0 5.659.257 11.403.484 16.8.24 9.07-.412 19.195.436 28.56,0 2.187-.103 4.615.184 6.48.239 10.555.319 21.135-.067 31.68-.72 .717-.483 1.54-.86 2.641-.96 .184-2.984-2.719-2.882-4.561-3.84 1.264-1.137 2.943-1.856 4.561-2.641-.096-.864-1.188-.731-1.681-1.199-.112-.753.604-.677.96-.96-.549-.252-.85-.75-1.68-.721 .9-.3 1.76-.64 2.64-.96-.988-1.247-3.112-1.827-5.04-1.439-.646-.643.306-.913.48-1.44-.716-.324-1.462-.618-1.92-1.2-.755.335.33,1.185-.24,1.44-3.008-.924-6.222-.102-9.12-.24-.399-.477.022-.305 0-.96h-11.04c.756,1.205 2.476.636 3.84.72 3.055.19 6.425.4 9.12.721-6.521.216-11.432-.604-18-.721 1.058-.991 2.838-1.166 4.32-1.199 4.23-.097 9.147.549 13.68,0 .477.553-.06.267-.239.72 2.444.018 4.851.808 6.239-.48-1.121-.358-2.983.464-2.88-.96 .116-1.209.911.125 1.44,0 2.628-.148 3.944,1.016 5.76,1.681 .525.499-.211.775.24,1.199 2.224-.063 3.374.946 4.8,1.681-.2.76-1.18.74-1.68,1.2 .104.533.551,1.301-.24,1.439 .181.779 1.549.371 1.68,1.2-.661,1.498-2.819,1.5-3.84,2.64 1.14.701 2.189,1.491 3.12,2.4 .147.812.066,1.854 1.2,1.68-.735,1.038-.053,1.071 0,2.4-.688.047-1.311.029-1.2-.72-.646.233-1.23.528-1.92.72-3.94-.339-7.9.218-12,.479-3.118.199-6.314-.453-9.36-.239-.82.058-1.623.484-2.399.479-.502-.003-.976-.404-1.44-.479-3.646-.59-8.582-.237-12.96-.24-4.682-.004-9.4.602-13.68.479-6.601-.188-15.646-.239-23.521-.239-6.144,0-12.335-.7-18.479-.48-2.271.081-4.626.389-6.96.48-1.701.066-3.673.311-5.28.239-.771-.033-1.578-.433-2.4-.479-4.74-.27-9.521.221-14.159.24 .061,2.092-.453,5.071 0,7.92-1.172.196-.677-1.366-.721-2.16-.1-1.805-.19-3.794-.24-4.8-1.309-.53-2.312.422-3.119-.721-1.067.779-2.055-.462-3.841.24 .03,2.159.09,6.075-1.439,7.44-.946-.336.671-1.97.24-3.36 .244.156.248.552.72.48-.659-1.715-.307-3.479-.96-4.801-1.96,1.18-5.972-1.807-5.76,1.681-.577.79.132-1.714-.48-1.681-.595,1.86.817,3.616-.479,5.28-.13-.837.512-2.238-.48-3.12-.31-.95.79-.49.48-1.439 .268-.982-2.57-1.627-2.4-.24-1.067-1.272-1.067.411-2.4-.72-.238,2.346 1.72,5.085.48,7.92h-2.64c1.097-1.553.669-4.706 0-6.48-.542.179-.095,1.347-.24,1.92-.281-.038-.203-.438-.24-.72-.524.035-.515.604-.48,1.2 .377.877.359-.558.96-.24 .614,3.128-2.537,6.459-4.081,3.12-.837.191.958,1.609-.24,1.439-.676-2.663-.966-6.228-.72-7.92-.885-.555-2.796-.083-4.08-.239 .166,1.154-.503,4.896.48,6 .333-1.06-.218-3.298 0-5.04 .722,1.454.15,5.901.96,7.199-.319.589-.724-.432-.96.24-1.184-2.096-.914-5.646-1.68-8.16-1.193,2.206-.616,5.834-.72,7.92h-1.44c-.29-2.871.479-5.892 0-8.159-.938.226-.204,1.21-.24,1.92-.999-.042-.071-2.01-1.2-1.92-.885,1.748.615,5.45.48,8.159-1.93-1.561-.223-6.14-1.68-7.68-.754.409.269,1.684-.24,1.92-.915-.045-.147-1.772-.72-2.16-1.438,1.643.877,4.617-.24,6.721-.515-1.536-.256-3.176-.48-4.561-.117-.72.018-2.075-.96-2.16-.831,2.415.643,6.236-.48,7.681-1.14-.061.021-2.422-.72-2.88-.779.181.426,2.346-.72,2.159 .452-1.941-1.199-5.255.72-5.04-.144-.655-1.231-.368-1.2-1.199-.919,1.48-.076,4.724-.72,6.479-.807.088-.4-1.04-.72-1.439-.575.305.084,1.844-.96,1.68-.245-1.035-.62-1.939-.48-3.36-.712,1.006.248,2.408-.24,3.36-1.333-2.137.16-6.037-1.44-8.16-8.085.246-16.89.408-25.2.48-2.441.021-4.759-.31-7.2-.24-4.115.115-8.699-.26-13.44-.48-12.903-.6-26.283.529-37.92,0-5.186-.235-7.693.229-13.2-.239-2.993-.256-6.521.089-9.12,0-2.826-.098-5.098-1.036-7.92-.48-1.197-1.254-4.704-.473-5.76-1.2 .072-1.528 1.372-1.828 2.4-2.399-.255-.652-.152-1.124.48-1.44-.282-1.14-2.473-1.897-1.2-3.12-.284-.597-1.519-.24-1.68-.96 1.081-.999 1.291-2.869 3.6-2.64 .795-.005.244-1.356.72-1.681 2.913.419 2.05-2.142 3.12-3.119-.111-.929-1.983-.098-2.16-.96-.116-1.156 1.49-.591 1.68-1.44-2.534-.426-5.643-.277-7.2-1.68 .494-.946 1.753-1.127 1.68-2.641 2.666-.055 3.136-2.304 4.8-3.359 .156-.956-1.416-.185-1.2-1.2-.14-.859.71-.729 1.44-.72 .93-.751 2.314-1.046 3.36-1.681-1.213-.352-2.892-.533-4.08-.24-.572-.807.763-1.365.72-2.399-.91-2.29-5.646-.754-6.48-3.12 .929-.511 1.953-.928 3.12-1.2 .429-.371.159-1.44.72-1.68 .818-.303 1.824-.417 2.64-.72-1.183-.961-5.17.463-6.72-.721-.499-3.138 3.149-2.131 3.6-4.319 1.302-.298 2.378-.822 3.6-1.2 .237-.957-.717-.723-.48-1.68 .846-.17 2.181.119 3.12-.48-1.513-.727-4.298-.182-4.56-2.16-1.165-.323-2.603.174-3.6-.72 .355-1.166 1.974-1.066 2.88-1.68 .351-.122-1.467-1.857.479-1.68-1.054-.706-3.198-.321-3.36-1.92-.21-1.57 1.793-.927 1.2-2.88 1.86-1.915 5.408-3.102 8.16-3.36-1.006-.698-3.465.739-4.32-.48 .203-.837.669-1.411 1.44-1.68-.337-.543-.971-.789-1.2-1.44 .13-1.069.565-1.834 1.2-2.4-.471-.569-1.318-.762-1.44-1.68-.922-.518-3.175.295-3.36-.96 .129-.911 1.725-.355 2.16-.96-.254-1.106-1.017-1.704-1.2-2.88-2.249-.151-2.222-2.579-4.08-3.12 3.912-.674 8.809-1.907 13.2-2.16 1.993-.115 4.154.904 5.52-.48 .246.234.485.475.72.72 28.442.02 70.302-.386 101.52-.24 .749-.611-.5-3.22.96-3.12-1.283-1.436-.287-2.638-.24-4.8 .037-1.708-.729-3.387-.48-4.32 .201-.753 2.812-2.896 3.6-3.6 1.432-1.277 2.825-2.25 3.84-3.12 2.417.224 2.974,2.306 4.32,3.6 1.958-1.562 2.983-4.057 5.52-5.04 .628,2.171 2.731,2.869 4.08,4.32 2.25-1.429 3.545-3.814 5.76-5.28 .574.145 1.095.345 1.92.24-1.745,2.495-5.024,3.456-5.28,7.44-1.256.376-.153-1.607-1.2-1.44-.888.048-1.005,2.138-.24,2.4-.339,2.38-.427,5.013-.72,7.44-.704-1.192.335-2.699 0-4.32-.07-.847-.649.847-.72,0-.67-2.861.479-5.576-1.2-6.96-.893-.736-1.99-1.252-2.64-2.4-1.144.216-1.277,1.443-1.68,2.4-1.052.548-2.041,1.16-2.64,2.16-.086,1.113.3,2.7-.72,2.88-.854-.746-.595-2.604-1.2-3.6-1.088-1.072-2.149-2.171-3.12-3.36-.97.47-1.423,1.457-2.16,2.16-.124,5.341.18,11.477 0,16.08 1.099.9 3.689.311 5.52.48 .544-.255.091-1.509.24-2.16 .385.042.255,1.787.72.96 .518-.574-.032.581-.243.72zm-123.36,65.76c-1.232.343-1.459.244-2.64.479 .097.623.747.693 1.2.96-.055-1.014 1.856-.063 1.44-1.439zm137.04,21.12c.146-1.792-.017-4.27-1.199-5.04 .04.52-.852.108-1.2.239 1.579,1.664 1.978,3.922 1.68,6.96 .714-.284.661-1.453.719-2.159zm-13.68-5.04c-.338,2.314-.697,4.409-.24,6.72 .16-1.911 1.199-5.264.24-6.72zm-8.16-93.12c-.058-.807 1.148-2.542 0-2.88-.434.454-.939,2.546 0,2.88zm-2.16.48c.412-.308.005-1.435.72-1.44-.013.413.185.615.48.72-.005-.565.414-.707.24-1.44h-.96c.161.895-1.384,1.318-.48,2.16zm89.28.72c.241-.001.286.194.48.24-.001-.241.194-.285.239-.48-.24.001-.285-.194-.479-.24 .001.241-.194.286-.24.48zm14.64,8.16c-.278-.202-.643-.317-1.199-.24-.371.725 1.241.631 1.199.24zm-.96,1.2c.014-.413-.185-.615-.479-.72-.014.413.184.615.479.72zm-2.4-.24c-.147-.07-.924-.597-.96,0 .447-.229.802.719.96,0zm-.96,2.64c.751-.049 1.762.162 2.16-.24v-1.44c-.874-.612-1.484-.164-2.4-.48-.074.874.038,1.562.24,2.16zm-209.76-.48c.302.699 1.57.648 2.4.72 2.321.2 5.332.127 6.48-.48-3.029-.609-6.3-.131-8.88-.24zm-.24,8.64c-.307-.013-.333-.308-.72-.24-.373.591.815.706.72.24zm4.56,6.48c-1.537-.277-.527.733 0,0zm-11.76,4.32c.304.701 2.621-.519 3.12-1.2-1.627-.187-1.839,1.041-3.12,1.2zm6.48,6.24c1.784-.163 3.096.047 4.32-.24-1.694-.318-3.195-1.194-4.32.24zm-5.76.24h1.44c-.011-.331.113-.527.24-.72-.592.208-1.661-.062-1.68.72zm0,.96c.454-.106 1.446.326 1.2-.48h-1.2v.48zm281.76.96c-.558-.542-2.289-.22-2.641.24 .565.234 1.522.078 1.44.96 1.26-.58 3.123-.557 4.08-1.44-.666-.432-2.502-.375-2.879.24zm-280.8,1.92c.576-.577-.788-.622-.72-.24-.003-.017.812.148.72.24zm262.32.48c-1.609,0-3.683-.559-4.8.72 7.169-.332 13.644.981 19.439-1.44-4.835.535-9.63.72-14.639.72zm-240,.48c.459-.101 1.033-.087.96-.72-.422.138-1.41-.29-1.44.24 .293.027.568.072.48.48zm-24.96,4.56c.457.103.603.517 1.2.479-.175-.654.477-.482.48-.96-.744-.023-1.331.11-1.68.481zm11.76.96c.596.036.996-.124 1.2-.48-.595-.036-1.165-.044-1.2.48zm-14.64,1.2c.768-.033 1.836.236 1.68-.721-.638.163-1.222.378-1.68.721zm28.08,0c.545-.175 1.872.432 1.68-.48h-1.68v.48zm-16.56,1.44c2.017-.247-.611-.711-1.2.24 .787.022.691-.178 1.2-.24zm-6.24,14.64c1.071.191.766-.995 1.44-1.2-.871.01-.772.988-1.44,1.2zm-.72,1.2h.72v-.72h-.48c-.013.306-.308.333-.24.72zm1.68,6.72c-.97-.844-.566.772 0,0zm2.88,1.2c.002-.317.42-.22.479-.48-.147-.07-.924-.597-.96,0 .318.003.221.421.481.48zm-2.4.96h1.68c.102-.964-1.63-.399-1.68,0zm7.2.48c-.349.132-1.241-.28-1.2.24 .348-.132 1.241.28 1.2-.24zm-3.84.72c.627-.105 2.52-.181 2.16-.479-.917-.038-1.748.012-2.16.479zm-2.4,12.96c-.772.054-1.015-.424-1.92-.239-.244.822 1.803.571 1.92.239zm1.92.72c-.497.143-1.576-.297-1.68.239 .497-.142 1.577.297 1.68-.239zm279.84.96c.734.174.706-.414 1.44-.24 .113-1.194-1.554-.62-1.44.24zm-150,1.92c.222,2.611-.062,5.563 1.2,6.72 2.29-.83.684-5.556 2.16-7.2-1.071-.495-1.965.248-3.12-.239-.013.306-.308.331-.24.719zm-.24,2.64c-.366-.095.569-2.545-.48-2.64-.304.768-.404,3.232.48,2.64zm0,2.64c.146-.085.283-2.189-.48-2.16 .566.797-.418,2.054.48,2.16z" fill-rule="evenodd"/>
 <path d="m231.12,18.72c.391-.509.141.854.721.72 .077-.018.443-.568.239-.72 .264.195.488.654.721,1.92-.89-.31-1.559-.841-1.681-1.92z" fill-rule="evenodd"/>
 <path d="m152.64,18.96c.521-1.469-.624,3.167-.24.48 .051-.357.175-.295.24-.48z" fill-rule="evenodd"/>
 <path d="m153.36,19.2c.556-.549-.081.748 0,1.2-.703-.203.143-.773 0-1.2z" fill-rule="evenodd"/>
 <path d="m153.12,25.2c.629.568-.101,1.806-.24,2.4-.721-.66.651-1.255.24-2.4z" fill-rule="evenodd"/>
 <path d="m270,32.88c.766.675 3.062-.181 3.841.48-1.992.479-4.487.372-7.2.48-6.027.242-11.636-.486-17.76-.48 .057-1.178 2.26.499 2.88-.48-2.725-.932-8.402-.735-12.48-.96-2.311-.127.671-.24 1.681-.24h2.399c9.7.788 21.756,1.806 30.72.48h3.36c-.489.551-1.993.087-2.88.24-1.134.547-2.822.538-4.561.48zm-13.2.24c-.284-.276-.849-.272-1.44-.24-.339.766 1.436.606 1.44.24zm.24.24c.881-.116 2.363.89 2.4-.48-.993-.033-1.854.066-2.4.48z" fill-rule="evenodd"/>
 <path d="m197.28,32.88c1.793-.283 3.242-.804 5.04-.48h.72c.137.704-3.529-.335-3.84.72-.349-.371-1.229-.211-1.92-.24z" fill-rule="evenodd"/>
 <path d="m281.041,34.08c.61.626-2.238-.169-2.4.48 3.119.543 7.612.782 10.8.48-2.036,1.403-6.151-.354-8.399.48 .085.66 1.142.651 1.68.72 2.028.258 4.821-.08 6.479.24 .454.049 2.371-.162 1.681.24-7.726-.23-15.74-.869-23.28-1.2-2.636-.116-5.623-.847-8.16-.48-.48.069-.687.08-.96.48-.513-.608-1.335-.128-2.16-.24-1.279-.173-2.321-.583-3.84-.48-.788.054-2.075.825-3.6.48-.61-.138-.912-.583-1.44-.72-5.396-.081-14.267-.4-19.44-1.2 14.044.837 28.524,1.236 42.721,1.92 .832.033.384-1.216 1.2-1.2 3.192.349 5.673-.07 9.118,0zm-.241,1.68c-.773-1.038-5.795-1.192-6.24-.24 2.369-.283 4.578.582 6.24.24z" fill-rule="evenodd"/>
 <path d="m293.28,40.32h-3.84c.727-.554 2.476-.084 3.601-.24 .498-.268.507-.259.239.24z" fill-rule="evenodd"/>
 <path d="m304.56,81.12c-.95-1.416-3.743-.39-5.52-.48 .594-.285.89-.87.72-1.92-1.279.03-2.399-1.009-3.84-1.2-2.221-.294-4.875.717-6.721-.239-.151-.866.896-.529 1.44-.721 2.643-.924 6.79-1.825 10.32-2.88-1.653-.967-3.966,1.349-5.04.24 .127-1.233 1.096-.951 2.399-1.2 2.478-.472 5.101-1.838 6.72-3.12-2.925-2.267-8.028-2.719-12.72-1.439 1.735-2.078 6.153-1.973 9.36-3.12 .558-.962 1.767-1.273 2.399-2.16 .031-1.481-1.215-1.463 0-2.399-1.078-.682-2.523-.996-4.319-.96 1.203-.774 4.729-.82 5.76.48 .209.77-.369.751-.72.96-.113.754.646.634.72,1.2-1.226,2.659-3.5,3.343-6,4.32 1.268.651 3.405.434 4.08,1.68 1.433.008 2.599.281 2.64,1.68-1.246,1.3-2.627,2.098-4.319,2.4 .794.665 1.457.235 2.399,0 .286,1.807-2.053.987-1.92,2.64-2.571.389-4.264,1.656-6.96,1.92 1.469.532 3.756.244 5.04.96 .223,1.058.646,1.913 1.44,2.4 1.118-.082 2.831-.578 3.84,0 .129.929-.612.988-.721,1.68 .379.661.817,1.264 1.44,1.68-.58,1.742-2.84,3.078-4.56,2.881-.563.076-.538.742-.96.96-2.631.329-4.524,1.396-6.48,2.399 .262.777 1.55-.646 1.92.24-.948,1.229-4.729.529-7.2.72-.668-.696.788-.622.48-1.68 1.958-.734 4.481-1.155 6.72-1.92 .725-.248 3.129-1.343 4.32-1.44 .437-.035.739.305.96.24 1.333-.388 2.366-1.452 3.12-2.4 .024-.744-.756-.685-.48-1.68-.355.125-.604.355-.96.48-.343-.651.939-.778 1.203-1.202z" fill-rule="evenodd"/>
 <path d="m300,60.96c-.651-.277 2.047-.265 1.921.48-.673-.128-1.249-.352-1.921-.48z" fill-rule="evenodd"/>
 <path d="m296.64,64.8c.618.058-.33.413 0,.96-.988-.188-1.231.368-2.16.24 .29-.83 1.346-.894 2.16-1.2z" fill-rule="evenodd"/>
 <path d="m40.8,66.48c.558.419-1.621.122-1.68.72 .471.455 2.386.318 2.88,0h2.16 2.16c-.885.555-2.796.083-4.08.24-1.442.477-3.788.052-5.28.479-.028-.245 1.035-.485.24-.72 .756-.683 2.445-.433 3.6-.719z" fill-rule="evenodd"/>
 <path d="m266.4,66.72c3.113-.454 6.341,1.123 9.84,1.44 2.724.247 5.605-.051 8.4.479-6.369.609-12.452-1.147-18.24-1.919z" fill-rule="evenodd"/>
 <path d="m281.52,66.72c2.995-.026 7.903.09 10.8-.239-3.48.773-7.631.787-10.8.239z" fill-rule="evenodd"/>
 <path d="m273.36,91.92c-.837-.202-1.403.973-2.399,1.2-3.591.82-9.715-.078-11.04,0 3.047-.854 6.964.315 10.079-.24 1.266-.226 2.052-1.559 3.36-.96z" fill-rule="evenodd"/>
 <path d="m292.32,95.76c.588-.727 1.562.183 2.4,0-.546.684-1.407-.337-2.4,0z" fill-rule="evenodd"/>
 <path d="m169.44,112.56c-.026-.85-.793.511-.72-.239-.379-.939.623-.497.72-.96-.008,1.515.784,5.901-1.44,6-.185-1.865.775-2.586.48-4.561 .252.855.917.845.96-.24zm-.96,4.32c.831-.049.437-1.323.72-1.92h-.72v1.92z" fill-rule="evenodd"/>
</svg>
